<svg id="svg" version="1.1" xmlns="http://www.w3.org/2000/svg" xmlns:xlink="http://www.w3.org/1999/xlink" width="400" height="133.58925143953934" viewBox="0, 0, 400,133.58925143953934"><g id="svgg"><path id="path0" d="M31.625 28.595 C 31.451 28.772,31.467 64.667,31.642 64.667 C 31.719 64.667,31.828 65.623,31.882 66.792 C 31.981 68.904,32.522 72.613,32.824 73.250 C 32.911 73.433,33.181 74.332,33.424 75.247 C 33.666 76.162,33.971 77.117,34.101 77.368 C 34.231 77.619,34.532 78.370,34.771 79.037 C 35.009 79.704,35.296 80.362,35.409 80.500 C 35.522 80.637,35.852 81.237,36.143 81.833 C 36.716 83.010,37.787 84.860,37.974 84.998 C 38.039 85.045,38.230 85.308,38.401 85.583 C 39.765 87.785,43.225 91.645,45.335 93.320 C 45.748 93.648,46.236 94.054,46.418 94.222 C 46.968 94.727,48.545 95.841,49.167 96.163 C 49.487 96.329,49.893 96.623,50.067 96.816 C 50.242 97.009,50.467 97.167,50.567 97.167 C 50.668 97.167,51.182 97.428,51.711 97.747 C 52.239 98.065,53.064 98.492,53.544 98.696 C 54.024 98.899,54.454 99.114,54.500 99.174 C 54.546 99.233,55.296 99.533,56.167 99.840 C 57.038 100.147,57.788 100.446,57.833 100.505 C 57.941 100.643,61.384 101.500,61.828 101.500 C 62.014 101.500,62.167 101.560,62.167 101.634 C 62.167 101.792,63.941 102.101,66.167 102.331 C 67.109 102.428,76.202 102.495,88.625 102.497 L 109.500 102.500 109.500 100.470 C 109.500 99.354,109.429 98.210,109.342 97.928 C 109.254 97.647,109.065 96.629,108.920 95.667 C 107.452 85.907,100.811 75.719,92.250 70.093 C 91.700 69.732,91.225 69.375,91.194 69.301 C 91.164 69.227,89.564 69.167,87.639 69.167 L 84.140 69.167 83.878 69.833 C 83.734 70.200,83.549 70.500,83.466 70.500 C 83.384 70.500,83.208 70.759,83.076 71.076 C 82.719 71.930,79.933 75.167,79.554 75.167 C 79.526 75.167,79.034 75.487,78.460 75.879 C 77.886 76.271,77.042 76.730,76.583 76.899 C 76.125 77.069,75.592 77.305,75.399 77.425 C 73.925 78.341,67.605 78.394,66.044 77.505 C 65.882 77.413,65.366 77.197,64.896 77.026 C 59.216 74.956,54.980 67.293,56.214 61.323 L 56.337 60.729 55.377 60.344 C 43.026 55.382,33.754 42.998,31.804 28.859 C 31.774 28.644,31.694 28.525,31.625 28.595 M328.167 39.443 C 328.167 42.649,328.375 43.815,329.019 44.217 C 329.192 44.325,329.333 44.505,329.333 44.616 C 329.333 44.728,329.690 45.025,330.125 45.277 C 330.560 45.528,330.954 45.786,331.000 45.851 C 331.209 46.143,333.275 46.347,335.549 46.301 L 338.014 46.250 333.165 41.417 C 330.498 38.758,328.282 36.552,328.241 36.514 C 328.200 36.476,328.167 37.794,328.167 39.443 " stroke="none" fill="#04a199" fill-rule="evenodd"></path><path id="path1" d="M31.601 24.930 C 31.425 25.390,31.484 28.696,31.667 28.583 C 31.758 28.527,31.833 28.637,31.833 28.828 C 31.833 29.749,32.919 34.537,33.590 36.577 C 37.033 47.039,45.353 56.176,55.143 60.246 C 56.387 60.762,56.275 60.821,56.612 59.481 C 56.759 58.895,56.931 58.379,56.993 58.333 C 57.055 58.288,57.333 57.760,57.611 57.161 C 59.000 54.163,61.990 51.380,65.083 50.204 C 65.633 49.995,66.313 49.717,66.593 49.586 C 68.048 48.907,73.974 48.939,74.892 49.632 C 74.997 49.711,75.458 49.914,75.917 50.084 C 77.861 50.802,79.843 52.167,81.454 53.898 C 81.932 54.412,82.270 54.834,82.204 54.836 C 82.137 54.837,82.167 54.894,82.270 54.961 C 82.505 55.116,83.514 56.718,83.894 57.542 L 84.182 58.167 93.299 58.145 C 98.314 58.133,102.154 58.068,101.833 58.000 C 101.513 57.932,101.315 57.867,101.395 57.855 C 101.475 57.843,94.183 50.479,85.190 41.490 C 76.197 32.502,68.857 25.058,68.878 24.949 C 68.945 24.601,31.735 24.582,31.601 24.930 M328.167 36.295 C 328.167 36.457,337.886 46.167,338.048 46.167 C 338.349 46.167,338.162 40.761,337.827 39.759 C 337.347 38.324,336.333 37.010,335.698 37.003 C 335.579 37.001,335.521 36.934,335.570 36.854 C 335.620 36.774,335.226 36.587,334.694 36.438 C 333.675 36.152,328.167 36.032,328.167 36.295 M91.170 69.292 C 91.172 69.360,91.633 69.709,92.193 70.067 C 100.633 75.450,107.478 85.943,108.926 95.719 C 109.078 96.744,109.264 97.733,109.340 97.917 C 109.416 98.100,109.483 91.706,109.489 83.708 L 109.500 69.167 100.333 69.167 C 95.292 69.167,91.168 69.223,91.170 69.292 " stroke="none" fill="#0a58aa" fill-rule="evenodd"></path><path id="path2" d="M286.500 63.070 L 286.500 90.000 291.250 90.000 L 296.000 90.000 296.000 89.250 C 296.000 88.395,296.118 88.341,296.779 88.893 C 297.307 89.334,298.221 89.833,298.500 89.833 C 298.600 89.833,298.998 89.988,299.383 90.178 C 301.340 91.140,309.015 91.276,309.661 90.360 C 309.710 90.291,310.222 90.093,310.799 89.922 C 313.174 89.215,317.345 86.116,318.544 84.167 C 318.741 83.846,318.990 83.508,319.096 83.417 C 319.203 83.325,319.506 82.837,319.770 82.333 C 320.034 81.829,320.306 81.375,320.375 81.324 C 320.535 81.204,321.333 79.173,321.333 78.885 C 321.333 78.765,321.396 78.667,321.473 78.667 C 321.675 78.667,322.146 76.860,322.424 75.015 C 322.953 71.501,322.513 65.921,321.568 64.167 C 321.445 63.938,321.145 63.262,320.903 62.667 C 320.661 62.071,320.406 61.546,320.337 61.500 C 320.268 61.454,320.045 61.088,319.841 60.687 C 318.764 58.562,315.183 54.921,313.149 53.883 C 312.654 53.631,312.212 53.376,312.167 53.317 C 312.086 53.212,311.454 52.946,309.500 52.192 C 305.960 50.826,299.871 51.455,297.027 53.481 C 296.755 53.675,296.487 53.833,296.433 53.833 C 296.378 53.833,296.333 50.832,296.333 47.164 C 296.333 43.132,296.269 40.381,296.170 40.206 C 296.081 40.047,295.926 39.589,295.825 39.189 C 295.295 37.068,293.632 36.265,289.625 36.195 L 286.500 36.141 286.500 63.070 M354.158 42.054 C 353.924 42.345,353.399 43.050,352.991 43.619 C 352.583 44.189,351.670 45.420,350.961 46.355 C 350.252 47.290,349.628 48.192,349.575 48.361 C 349.521 48.529,349.409 48.667,349.324 48.667 C 349.240 48.667,348.972 48.985,348.729 49.375 C 348.486 49.765,348.182 50.196,348.054 50.333 C 347.606 50.813,345.955 53.086,345.785 53.458 C 345.690 53.665,345.556 53.833,345.487 53.833 C 345.417 53.833,345.197 54.098,344.997 54.421 C 344.797 54.744,344.545 55.101,344.437 55.213 C 343.567 56.111,343.500 56.368,343.500 58.817 L 343.500 61.167 345.904 61.167 L 348.308 61.167 348.373 71.292 C 348.441 81.847,348.523 83.109,349.247 84.750 C 350.323 87.187,350.500 87.487,351.333 88.276 C 351.563 88.493,351.910 88.822,352.106 89.008 C 352.520 89.400,354.048 90.167,354.416 90.167 C 354.554 90.167,354.667 90.235,354.667 90.320 C 354.667 91.052,362.122 91.305,364.333 90.648 C 364.908 90.477,365.141 90.383,366.708 89.689 L 367.500 89.338 367.500 85.002 C 367.500 82.618,367.458 80.667,367.406 80.667 C 367.233 80.667,366.588 81.038,366.250 81.332 C 365.262 82.190,361.266 82.561,359.852 81.925 C 359.229 81.644,359.052 81.440,358.565 80.439 L 358.000 79.278 358.000 70.225 L 358.000 61.172 362.708 61.128 L 367.417 61.083 367.461 56.792 L 367.506 52.500 362.753 52.500 L 358.000 52.500 358.000 47.000 L 358.000 41.500 356.292 41.512 L 354.583 41.524 354.158 42.054 M146.939 51.751 C 146.126 51.884,145.376 52.057,145.272 52.137 C 145.168 52.217,144.427 52.484,143.625 52.730 C 142.823 52.976,142.167 53.236,142.167 53.308 C 142.167 53.380,141.749 53.612,141.238 53.824 C 140.727 54.035,140.108 54.370,139.863 54.567 C 139.617 54.764,139.196 55.036,138.925 55.171 C 137.566 55.851,134.476 59.383,133.388 61.500 C 133.129 62.004,132.878 62.454,132.832 62.500 C 132.708 62.622,132.000 64.395,131.999 64.587 C 131.998 64.676,131.887 64.962,131.752 65.222 C 130.738 67.165,130.681 77.167,131.684 77.167 C 131.766 77.167,131.833 77.289,131.833 77.438 C 131.833 78.209,133.747 82.321,134.176 82.472 C 134.262 82.503,134.333 82.616,134.333 82.724 C 134.333 83.310,138.556 87.500,139.146 87.500 C 139.249 87.500,139.333 87.568,139.333 87.652 C 139.333 88.042,143.927 90.167,144.772 90.167 C 144.897 90.167,145.000 90.232,145.000 90.312 C 145.000 90.521,146.720 90.828,148.879 91.004 C 151.512 91.218,156.667 90.752,156.667 90.300 C 156.667 90.227,156.813 90.167,156.991 90.167 C 157.447 90.167,160.204 89.152,160.470 88.886 C 160.591 88.765,160.767 88.667,160.861 88.667 C 161.542 88.667,166.167 84.901,166.167 84.346 C 166.167 83.990,159.915 77.833,159.554 77.833 C 159.357 77.833,159.014 78.120,158.707 78.542 C 155.886 82.415,150.176 83.461,145.861 80.894 C 144.806 80.267,142.333 77.835,142.333 77.425 C 142.333 77.308,142.186 77.025,142.007 76.797 C 140.688 75.120,140.288 70.325,141.228 67.458 C 141.491 66.656,141.765 66.000,141.838 66.000 C 141.911 66.000,142.127 65.681,142.318 65.292 C 142.638 64.641,143.863 63.242,144.846 62.406 C 148.813 59.032,155.674 59.795,158.652 63.941 C 159.193 64.694,159.314 64.662,160.483 63.458 C 161.039 62.885,162.433 61.462,163.580 60.296 C 164.728 59.130,165.667 58.063,165.667 57.925 C 165.667 56.854,160.664 53.443,157.928 52.649 C 157.280 52.461,156.600 52.243,156.417 52.163 C 155.072 51.582,149.473 51.339,146.939 51.751 M180.917 51.763 C 180.092 51.890,179.267 52.067,179.083 52.156 C 178.900 52.245,178.253 52.466,177.646 52.647 C 175.332 53.337,172.239 55.062,170.521 56.621 L 169.458 57.584 172.249 60.459 C 173.783 62.040,175.110 63.333,175.197 63.333 C 175.364 63.333,176.465 62.550,176.750 62.229 C 176.842 62.126,177.442 61.771,178.083 61.440 C 182.912 58.954,189.161 60.132,190.683 63.816 C 190.857 64.238,191.072 64.708,191.159 64.860 C 191.246 65.013,191.367 65.509,191.428 65.964 L 191.537 66.790 186.810 66.886 C 184.210 66.939,181.783 67.057,181.417 67.148 C 181.050 67.240,180.233 67.433,179.601 67.576 C 177.833 67.979,176.167 68.516,176.167 68.683 C 176.167 68.766,176.073 68.835,175.958 68.836 C 175.707 68.839,174.326 69.569,173.316 70.231 C 172.211 70.956,170.359 72.939,169.913 73.876 C 169.771 74.173,169.535 74.635,169.388 74.903 C 168.228 77.020,168.337 83.571,169.553 84.877 C 169.662 84.993,169.900 85.384,170.083 85.746 C 170.846 87.249,173.159 89.306,174.760 89.905 C 175.213 90.075,175.664 90.276,175.762 90.353 C 176.896 91.235,186.642 91.203,186.972 90.316 C 187.003 90.234,187.174 90.167,187.353 90.167 C 187.773 90.167,190.333 89.181,190.333 89.019 C 190.333 88.951,190.596 88.770,190.917 88.617 L 191.500 88.339 191.500 89.169 L 191.500 90.000 196.250 90.000 L 201.000 90.000 201.000 78.204 C 201.000 71.307,200.930 65.821,200.832 64.996 C 200.606 63.102,200.180 61.167,199.989 61.167 C 199.903 61.167,199.833 61.063,199.833 60.937 C 199.833 60.114,198.340 57.701,196.853 56.121 C 193.332 52.380,187.417 50.763,180.917 51.763 M224.407 51.744 C 223.760 51.861,223.085 52.036,222.907 52.131 C 222.729 52.227,222.002 52.506,221.291 52.753 C 220.580 52.999,219.956 53.270,219.904 53.354 C 219.852 53.438,219.459 53.686,219.030 53.906 C 218.601 54.126,218.100 54.481,217.917 54.695 L 217.583 55.083 217.535 53.792 L 217.486 52.500 212.743 52.500 L 208.000 52.500 208.000 71.250 L 208.000 90.000 212.750 90.000 L 217.500 90.000 217.500 76.502 L 217.500 63.004 218.125 62.423 C 218.469 62.104,218.805 61.840,218.872 61.838 C 218.940 61.835,219.373 61.601,219.834 61.317 C 222.589 59.622,227.814 59.572,229.583 61.224 C 229.767 61.395,230.080 61.644,230.279 61.778 C 230.843 62.157,232.000 64.206,232.257 65.281 C 232.443 66.060,232.489 68.581,232.494 78.125 L 232.500 90.000 237.417 90.000 L 242.333 90.000 242.332 78.375 C 242.331 67.305,242.196 63.129,241.829 62.763 C 241.740 62.673,241.667 62.475,241.667 62.321 C 241.667 59.821,237.124 53.500,235.328 53.500 C 235.239 53.500,235.167 53.432,235.167 53.348 C 235.167 53.264,234.623 52.994,233.958 52.748 C 233.294 52.501,232.621 52.233,232.463 52.151 C 231.331 51.567,226.678 51.331,224.407 51.744 M259.521 51.749 C 258.754 51.868,257.967 52.042,257.771 52.136 C 257.576 52.230,256.854 52.469,256.167 52.667 C 255.479 52.865,254.767 53.119,254.583 53.232 C 254.400 53.344,253.838 53.611,253.335 53.823 C 252.007 54.385,248.881 56.587,248.394 57.304 C 248.085 57.759,247.866 57.481,251.014 60.643 C 254.018 63.660,253.708 63.443,254.366 62.992 C 254.669 62.785,254.992 62.530,255.083 62.425 C 256.697 60.585,262.640 59.547,265.572 60.592 C 267.883 61.416,269.705 63.617,269.945 65.875 L 270.047 66.833 266.434 66.833 C 262.870 66.833,259.901 67.036,259.250 67.325 C 259.067 67.406,258.203 67.630,257.332 67.822 C 255.923 68.133,252.749 69.448,252.500 69.824 C 252.454 69.893,252.117 70.143,251.750 70.378 C 251.383 70.613,250.783 71.094,250.417 71.447 C 249.357 72.465,248.875 73.144,247.892 75.000 C 247.074 76.544,246.915 81.707,247.624 83.667 C 248.618 86.412,251.086 89.077,253.417 89.922 C 253.875 90.088,254.325 90.278,254.417 90.345 C 255.704 91.276,263.536 91.275,265.583 90.342 C 265.767 90.259,266.412 90.033,267.018 89.840 C 267.624 89.647,268.470 89.266,268.899 88.994 C 269.921 88.346,270.000 88.364,270.000 89.250 L 270.000 90.000 274.917 90.000 L 279.833 90.000 279.833 79.177 C 279.833 73.224,279.769 68.314,279.691 68.265 C 279.613 68.217,279.507 67.294,279.455 66.214 C 279.347 63.952,278.968 61.946,278.425 60.750 C 278.216 60.292,277.993 59.747,277.928 59.540 C 277.486 58.131,274.145 54.596,272.500 53.798 C 272.087 53.598,271.662 53.348,271.555 53.242 C 271.448 53.137,270.810 52.877,270.138 52.665 C 269.466 52.454,268.834 52.217,268.732 52.140 C 268.005 51.584,262.179 51.337,259.521 51.749 M328.333 71.250 L 328.333 90.000 333.250 90.000 L 338.167 90.000 338.167 71.250 L 338.167 52.500 333.250 52.500 L 328.333 52.500 328.333 71.250 M305.997 60.537 C 306.591 60.721,307.392 61.087,307.777 61.352 C 308.162 61.617,308.541 61.833,308.619 61.833 C 309.317 61.833,311.656 65.162,312.167 66.883 C 312.363 67.543,312.612 68.263,312.720 68.484 C 312.983 69.019,312.989 73.692,312.728 74.016 C 312.624 74.145,312.485 74.512,312.419 74.833 C 312.217 75.814,311.472 77.545,311.058 77.991 C 310.843 78.223,310.667 78.472,310.667 78.544 C 310.667 78.788,309.259 80.202,308.504 80.715 C 308.089 80.997,307.712 81.280,307.667 81.345 C 307.483 81.601,304.796 82.323,303.629 82.429 C 301.141 82.654,298.186 81.691,296.540 80.118 L 295.997 79.598 296.040 70.860 L 296.083 62.121 297.284 61.493 C 300.115 60.011,303.198 59.673,305.997 60.537 M191.462 77.269 L 191.417 80.538 190.167 81.180 C 188.973 81.793,186.982 82.500,186.446 82.500 C 186.308 82.500,186.164 82.591,186.127 82.703 C 186.079 82.847,185.443 82.907,183.905 82.911 L 181.750 82.917 180.560 82.299 C 179.698 81.851,179.263 81.506,178.985 81.049 C 178.774 80.701,178.522 80.363,178.425 80.298 C 177.969 79.989,178.224 77.611,178.797 76.829 C 180.367 74.690,182.497 74.066,188.379 74.023 L 191.507 74.000 191.462 77.269 M270.000 77.247 L 270.000 80.493 269.292 80.852 C 268.902 81.050,268.546 81.267,268.500 81.335 C 268.454 81.403,267.667 81.701,266.750 81.998 C 265.833 82.294,264.903 82.622,264.683 82.727 C 262.573 83.730,257.167 82.051,257.167 80.393 C 257.167 80.284,257.073 80.163,256.958 80.125 C 256.702 80.039,256.678 77.538,256.932 77.365 C 257.025 77.302,257.268 76.974,257.473 76.637 C 258.090 75.622,259.999 74.621,261.833 74.352 C 262.521 74.250,263.271 74.140,263.500 74.107 C 263.729 74.073,265.285 74.035,266.958 74.023 L 270.000 74.000 270.000 77.247 " stroke="none" fill="#6c6c74" fill-rule="evenodd"></path><path id="path3" d="M68.889 24.907 C 68.889 25.069,76.059 32.363,85.215 41.515 C 94.194 50.490,101.475 57.842,101.395 57.852 C 100.548 57.964,103.288 58.149,105.899 58.157 L 109.214 58.167 109.106 57.134 C 109.047 56.567,108.935 56.060,108.858 56.009 C 108.781 55.958,108.665 55.579,108.601 55.167 C 108.424 54.029,107.807 51.594,107.671 51.500 C 107.606 51.454,107.386 50.866,107.183 50.193 C 106.980 49.520,106.481 48.266,106.074 47.406 C 105.667 46.546,105.333 45.770,105.333 45.683 C 105.333 45.595,105.237 45.425,105.118 45.304 C 105.000 45.182,104.732 44.746,104.523 44.333 C 104.313 43.921,104.054 43.508,103.946 43.417 C 103.838 43.325,103.525 42.813,103.250 42.280 C 102.975 41.746,102.619 41.237,102.458 41.149 C 102.298 41.061,102.167 40.881,102.167 40.750 C 102.167 40.618,101.904 40.249,101.583 39.928 C 101.263 39.607,101.000 39.292,101.000 39.228 C 101.000 38.746,95.515 33.333,95.026 33.333 C 94.926 33.333,94.766 33.186,94.669 33.005 C 94.573 32.825,94.158 32.480,93.747 32.239 C 93.336 31.999,93.000 31.753,92.999 31.692 C 92.999 31.632,92.587 31.361,92.083 31.089 C 91.579 30.817,91.167 30.546,91.167 30.487 C 91.167 30.428,90.660 30.132,90.042 29.829 C 89.423 29.527,88.879 29.231,88.833 29.173 C 88.747 29.062,87.983 28.706,87.042 28.338 C 86.744 28.222,86.500 28.060,86.500 27.980 C 86.500 27.899,86.444 27.847,86.375 27.864 C 86.306 27.881,85.987 27.784,85.667 27.648 C 85.346 27.512,84.633 27.255,84.083 27.076 C 83.533 26.898,83.046 26.709,83.000 26.657 C 82.880 26.521,79.770 25.738,78.167 25.440 C 78.029 25.414,77.804 25.346,77.667 25.288 C 76.555 24.822,68.889 24.489,68.889 24.907 " stroke="none" fill="#263994" fill-rule="evenodd"></path><path id="path4" d="" stroke="none" fill="#5060a4" fill-rule="evenodd"></path></g></svg>