<?xml version="1.0" standalone="no"?>
<!DOCTYPE svg PUBLIC "-//W3C//DTD SVG 20010904//EN"
 "http://www.w3.org/TR/2001/REC-SVG-20010904/DTD/svg10.dtd">
<svg version="1.0" xmlns="http://www.w3.org/2000/svg"
 width="1184.000000pt" height="301.000000pt" viewBox="0 0 1184.000000 301.000000"
 preserveAspectRatio="xMidYMid meet">
<metadata>
Created by potrace 1.16, written by Peter Selinger 2001-2019
</metadata>
<g transform="translate(0.000000,301.000000) scale(0.100000,-0.100000)"
fill="#000000" stroke="none">
<path d="M250 2097 l2 -724 597 -596 596 -597 723 0 722 0 0 565 0 565 -430 0
-430 0 -26 -52 c-15 -29 -55 -81 -89 -114 -277 -272 -733 -140 -830 241 -55
216 59 452 271 557 75 37 92 41 177 46 114 6 177 -7 270 -55 77 -41 169 -133
205 -206 l23 -47 425 0 c233 0 424 2 424 4 0 3 -7 38 -15 78 -94 453 -427 834
-860 983 -203 70 -182 68 -1008 72 l-748 4 1 -724z"/>
<path d="M8900 1516 l0 -916 165 0 165 0 0 25 0 24 76 -36 c70 -33 86 -37 183
-41 163 -7 272 28 395 124 110 87 189 214 228 367 29 115 23 291 -14 395 -55
154 -147 273 -274 355 -95 61 -172 88 -274 94 -101 7 -187 -12 -267 -58 l-53
-29 0 241 c0 270 -4 288 -68 337 -33 25 -44 27 -149 31 l-113 3 0 -916z m705
72 c64 -33 129 -104 162 -175 20 -43 27 -78 31 -148 5 -107 -12 -183 -60 -257
-103 -163 -318 -202 -478 -88 l-30 21 0 304 0 305 25 16 c90 59 257 69 350 22z"/>
<path d="M10320 2422 c0 -4 74 -81 165 -172 l165 -165 0 116 c0 104 -2 120
-23 150 -38 57 -95 79 -209 79 -54 0 -98 -3 -98 -8z"/>
<path d="M11062 2038 c-87 -117 -172 -233 -190 -257 -30 -42 -32 -51 -32 -123
l0 -78 80 0 80 0 0 -282 c0 -156 5 -324 10 -375 18 -168 70 -262 173 -313 110
-53 304 -58 416 -9 l51 21 0 144 c0 79 -1 144 -3 144 -2 0 -23 -10 -48 -22
-27 -13 -71 -23 -114 -26 -62 -4 -73 -1 -99 19 -53 42 -56 61 -56 394 l0 305
160 0 160 0 0 150 0 150 -160 0 -160 0 0 185 0 185 -55 0 -55 0 -158 -212z"/>
<path d="M4195 1903 c-179 -25 -349 -127 -448 -269 -97 -140 -132 -262 -125
-434 15 -337 254 -591 591 -629 143 -16 302 14 428 81 61 32 169 122 169 141
0 6 -48 60 -107 119 l-107 107 -62 -59 c-84 -78 -151 -104 -254 -98 -163 10
-287 122 -326 294 -13 61 -14 86 -5 137 37 210 212 347 404 316 75 -12 125
-38 184 -95 l47 -45 110 110 110 110 -29 32 c-128 134 -373 211 -580 182z"/>
<path d="M5328 1900 c-74 -13 -157 -39 -218 -70 -54 -27 -180 -116 -180 -127
0 -3 43 -48 95 -100 l94 -95 61 41 c80 53 126 66 230 66 152 -1 238 -63 263
-192 l7 -33 -93 0 c-350 -1 -553 -83 -653 -263 -27 -49 -29 -58 -29 -172 0
-113 2 -123 29 -178 36 -71 109 -140 181 -173 133 -61 387 -44 521 35 l34 20
0 -29 0 -30 166 0 165 0 -3 438 c-4 468 -7 489 -60 602 -33 68 -144 175 -220
210 -110 52 -263 71 -390 50z m342 -865 l0 -115 -47 -24 c-120 -60 -247 -73
-323 -33 -110 58 -102 191 15 246 59 28 127 38 253 40 l102 1 0 -115z"/>
<path d="M6785 1895 c-69 -15 -145 -48 -192 -83 l-33 -24 0 46 0 46 -162 -2
-163 -3 -3 -637 -2 -638 165 0 165 0 1 463 0 462 31 24 c93 74 251 97 343 51
56 -28 109 -91 125 -148 6 -23 10 -195 10 -444 l0 -408 166 0 165 0 -3 453
c-4 497 -4 494 -70 619 -94 178 -322 271 -543 223z"/>
<path d="M7975 1895 c-118 -21 -247 -82 -339 -159 l-38 -33 93 -96 c51 -54 96
-97 102 -97 5 0 23 12 41 27 84 71 230 101 339 69 93 -27 167 -109 167 -183
l0 -30 -157 -6 c-165 -7 -285 -29 -366 -67 -182 -85 -272 -237 -248 -423 23
-177 154 -303 338 -326 124 -16 284 9 385 60 47 24 48 24 48 -6 l0 -25 166 0
166 0 -4 438 c-5 474 -7 491 -64 604 -39 78 -139 173 -220 209 -122 55 -264
71 -409 44z m365 -860 l0 -115 -47 -24 c-72 -36 -150 -56 -218 -56 -189 0
-254 185 -95 267 57 29 128 40 258 42 l102 1 0 -115z"/>
<path d="M10330 1240 l0 -640 165 0 165 0 -2 638 -3 637 -162 3 -163 2 0 -640z"/>
<path d="M265 1298 c3 -18 8 -42 10 -53 2 -11 4 -22 5 -25 1 -3 3 -9 4 -15 3
-18 990 -993 1011 -998 11 -3 37 -8 59 -12 21 -3 43 -8 50 -11 6 -4 -248 253
-564 570 -316 317 -576 576 -578 576 -2 0 0 -15 3 -32z"/>
</g>
</svg>
