<?xml version="1.0" encoding="UTF-8" standalone="no"?>
<svg
   xmlns:dc="http://purl.org/dc/elements/1.1/"
   xmlns:cc="http://creativecommons.org/ns#"
   xmlns:rdf="http://www.w3.org/1999/02/22-rdf-syntax-ns#"
   xmlns:svg="http://www.w3.org/2000/svg"
   xmlns="http://www.w3.org/2000/svg"
   xmlns:sodipodi="http://sodipodi.sourceforge.net/DTD/sodipodi-0.dtd"
   xmlns:inkscape="http://www.inkscape.org/namespaces/inkscape"
   version="1.1"
   id="svg2"
   xml:space="preserve"
   width="2560"
   height="1440"
   viewBox="0 0 2560 1440"
   sodipodi:docname="Logo-แนวนอน.ai"><metadata
     id="metadata8"><rdf:RDF><cc:Work
         rdf:about=""><dc:format>image/svg+xml</dc:format><dc:type
           rdf:resource="http://purl.org/dc/dcmitype/StillImage" /></cc:Work></rdf:RDF></metadata><defs
     id="defs6"><linearGradient
       x1="0"
       y1="0"
       x2="1"
       y2="0"
       gradientUnits="userSpaceOnUse"
       gradientTransform="matrix(271.09671,271.09671,271.09671,-271.09671,110.94495,359.36026)"
       spreadMethod="pad"
       id="linearGradient28"><stop
         style="stop-opacity:1;stop-color:#00ae4d"
         offset="0"
         id="stop24" /><stop
         style="stop-opacity:1;stop-color:#0094d9"
         offset="1"
         id="stop26" /></linearGradient><linearGradient
       x1="0"
       y1="0"
       x2="1"
       y2="0"
       gradientUnits="userSpaceOnUse"
       gradientTransform="matrix(250.75977,250.75977,250.75977,-250.75977,143.83166,515.63171)"
       spreadMethod="pad"
       id="linearGradient50"><stop
         style="stop-opacity:1;stop-color:#008cd1"
         offset="0"
         id="stop44" /><stop
         style="stop-opacity:1;stop-color:#2e3191"
         offset="1"
         id="stop46" /><stop
         style="stop-opacity:1;stop-color:#2e3191"
         offset="1"
         id="stop48" /></linearGradient><linearGradient
       x1="0"
       y1="0"
       x2="1"
       y2="0"
       gradientUnits="userSpaceOnUse"
       gradientTransform="matrix(250.75977,250.75977,250.75977,-250.75977,328.07779,331.38562)"
       spreadMethod="pad"
       id="linearGradient72"><stop
         style="stop-opacity:1;stop-color:#008cd1"
         offset="0"
         id="stop66" /><stop
         style="stop-opacity:1;stop-color:#2e3191"
         offset="1"
         id="stop68" /><stop
         style="stop-opacity:1;stop-color:#2e3191"
         offset="1"
         id="stop70" /></linearGradient><clipPath
       clipPathUnits="userSpaceOnUse"
       id="clipPath82"><path
         d="M 0,1080 H 1920 V 0 H 0 Z"
         id="path80" /></clipPath></defs><sodipodi:namedview
     pagecolor="#ffffff"
     bordercolor="#666666"
     borderopacity="1"
     objecttolerance="10"
     gridtolerance="10"
     guidetolerance="10"
     inkscape:pageopacity="0"
     inkscape:pageshadow="2"
     inkscape:window-width="640"
     inkscape:window-height="480"
     id="namedview4" /><g
     id="g10"
     inkscape:groupmode="layer"
     inkscape:label="Logo-แนวนอน"
     transform="matrix(1.3333333,0,0,-1.3333333,0,1440)"><g
       id="g12"><g
         id="g14"><g
           id="g20"><g
             id="g22"><path
               d="m 105.391,560.487 c 0,-35.567 9.407,-68.921 25.858,-97.745 v 0 c 33.979,-59.61 98.141,-99.784 171.671,-99.784 v 0 h 197.548 v 20.059 c -2.89,28.841 -11.956,55.851 -25.857,79.706 v 0 c -16.357,28.105 -39.419,51.811 -67.015,68.941 v 0 H 372.673 C 361.34,504.296 334.369,485.049 302.92,485.049 v 0 c -37.095,0 -67.958,26.783 -74.286,62.066 v 0 c -0.774,4.344 -1.17,8.801 -1.17,13.372 v 0 c 0,5.212 0.528,10.313 1.529,15.242 v 0 c -40.853,16.395 -75.022,46.011 -97.158,83.541 v 0 c -14.205,24.025 -23.478,51.319 -26.444,80.462 v 0 z"
               style="fill:url(#linearGradient28);stroke:none"
               id="path30" /></g></g></g></g><g
       id="g32"><g
         id="g34"><g
           id="g40"><g
             id="g42"><path
               d="m 105.391,758.035 v -18.303 c 2.966,-29.143 12.239,-56.437 26.444,-80.462 v 0 c 22.136,-37.53 56.305,-67.146 97.158,-83.541 v 0 c 7.064,34.376 37.474,60.215 73.927,60.215 v 0 c 31.467,0 58.42,-19.247 69.753,-46.635 v 0 h 125.68 c -3.664,25.179 -12.088,48.826 -24.346,69.98 v 0 c -34.15,59.024 -97.991,98.746 -171.087,98.746 v 0 z"
               style="fill:url(#linearGradient50);stroke:none"
               id="path52" /></g></g></g></g><g
       id="g54"><g
         id="g56"><g
           id="g62"><g
             id="g64"><path
               d="m 407.596,531.664 c 27.596,-17.13 50.658,-40.836 67.015,-68.941 v 0 c 13.901,-23.855 22.967,-50.865 25.857,-79.706 v 0 148.647 z"
               style="fill:url(#linearGradient72);stroke:none"
               id="path74" /></g></g></g></g><g
       id="g76"><g
         id="g78"
         clip-path="url(#clipPath82)"><g
           id="g84"
           transform="translate(789,454.9717)"><path
             d="m 0,0 c -9.661,-10.98 -21.293,-19.317 -34.9,-25.024 -13.613,-5.705 -27.879,-8.562 -42.803,-8.562 -13.828,0 -26.885,2.526 -39.166,7.575 -12.285,5.047 -22.95,12.017 -31.994,20.908 -9.045,8.889 -16.185,19.477 -21.417,31.771 -5.232,12.291 -7.845,25.57 -7.845,39.841 0,14.045 2.613,27.164 7.845,39.346 5.232,12.182 12.316,22.77 21.257,31.773 8.936,8.998 19.545,16.075 31.825,21.236 12.279,5.156 25.446,7.738 39.495,7.738 14.487,0 28.259,-2.633 41.322,-7.903 13.057,-5.268 24.415,-13.282 34.076,-24.036 l -31.937,-32.594 c -4.831,6.363 -10.7,11.63 -17.614,15.803 -6.915,4.167 -15.311,6.256 -25.189,6.256 -7.243,0 -14.107,-1.538 -20.579,-4.61 -6.477,-3.077 -12.181,-7.191 -17.12,-12.347 -4.94,-5.161 -8.839,-11.252 -11.689,-18.273 -2.855,-7.028 -4.28,-14.486 -4.28,-22.389 0,-7.903 1.425,-15.368 4.28,-22.389 2.85,-7.029 6.693,-13.12 11.524,-18.275 4.825,-5.158 10.536,-9.276 17.121,-12.347 6.586,-3.075 13.5,-4.61 20.743,-4.61 9.435,0 17.996,2.249 25.683,6.752 7.68,4.495 13.828,10.257 18.438,17.284 z"
             style="fill:#6d6e70;fill-opacity:1;fill-rule:nonzero;stroke:none"
             id="path86" /></g><g
           id="g88"
           transform="translate(919.3843,473.7393)"><path
             d="m 0,0 v 35.229 h -21.731 c -6.585,0 -12.79,-0.442 -18.603,-1.316 -5.818,-0.882 -10.866,-2.363 -15.146,-4.447 -4.281,-2.089 -7.686,-4.772 -10.207,-8.065 -2.525,-3.294 -3.786,-7.245 -3.786,-11.854 0,-6.584 2.577,-11.966 7.738,-16.133 5.154,-4.173 11.796,-6.257 19.92,-6.257 7.022,0 13.993,1.096 20.907,3.294 C -13.994,-7.359 -7.027,-4.172 0,0 M 47.413,-47.413 H 0 v 10.207 c -8.345,-5.71 -17.179,-9.661 -26.506,-11.854 -9.332,-2.19 -18.932,-3.294 -28.809,-3.294 -9.219,0 -17.564,1.375 -25.023,4.118 -7.466,2.741 -13.942,6.692 -19.427,11.853 -5.488,5.154 -9.713,11.247 -12.675,18.273 -2.963,7.023 -4.446,14.817 -4.446,23.378 0,10.751 2.357,20.135 7.079,28.15 4.718,8.012 11.139,14.705 19.262,20.084 8.118,5.377 17.615,9.385 28.48,12.019 10.865,2.633 22.554,3.952 35.066,3.952 H 0.329 c 0,11.193 -3.622,20.084 -10.866,26.668 -7.243,6.587 -17.671,9.877 -31.278,9.877 -6.586,0 -13.392,-1.207 -20.414,-3.621 -7.028,-2.419 -14.05,-6.807 -21.073,-13.17 l -27.986,28.315 c 10.094,9.659 21.782,17.122 35.065,22.389 13.278,5.271 26.943,7.903 40.993,7.903 13.17,0 24.895,-2.089 35.178,-6.256 10.28,-4.173 18.582,-9.547 24.905,-16.133 8.283,-8.345 14.112,-17.671 17.491,-27.987 3.375,-10.32 5.069,-23.49 5.069,-39.509 z"
             style="fill:#6d6e70;fill-opacity:1;fill-rule:nonzero;stroke:none"
             id="path90" /></g><g
           id="g92"
           transform="translate(1176.5234,426.3262)"><path
             d="m 0,0 h -47.41 v 113.593 c 0,6.799 -1.05,12.783 -3.145,17.945 -2.093,5.152 -4.902,9.435 -8.43,12.839 -3.531,3.4 -7.553,5.926 -12.07,7.573 -4.516,1.647 -9.203,2.47 -14.049,2.47 -7.274,0 -14.442,-1.266 -21.495,-3.786 -7.052,-2.526 -13.441,-6.533 -19.172,-12.02 V 0 h -47.413 v 190.31 h 47.413 l 0.329,-14.159 c 2.85,2.851 6.364,5.483 10.536,7.903 4.167,2.411 8.504,4.444 13.005,6.091 4.495,1.646 9.104,2.906 13.829,3.786 4.716,0.874 9.269,1.316 13.663,1.316 9.656,0 18.93,-1.538 27.819,-4.609 8.894,-3.078 16.797,-7.794 23.708,-14.159 6.917,-6.368 12.454,-14.599 16.626,-24.694 C -2.089,141.687 0,129.726 0,115.897 Z"
             style="fill:#6d6e70;fill-opacity:1;fill-rule:nonzero;stroke:none"
             id="path94" /></g><g
           id="g96"
           transform="translate(1319.748,473.7393)"><path
             d="m 0,0 v 35.229 h -21.731 c -6.586,0 -12.79,-0.442 -18.603,-1.316 -5.819,-0.882 -10.866,-2.363 -15.145,-4.447 -4.282,-2.089 -7.687,-4.772 -10.208,-8.065 -2.525,-3.294 -3.786,-7.245 -3.786,-11.854 0,-6.584 2.577,-11.966 7.738,-16.133 5.153,-4.173 11.796,-6.257 19.92,-6.257 7.023,0 13.993,1.096 20.907,3.294 C -13.993,-7.359 -7.028,-4.172 0,0 M 47.411,-47.413 H 0 v 10.207 c -8.345,-5.71 -17.178,-9.661 -26.506,-11.854 -9.331,-2.19 -18.931,-3.294 -28.81,-3.294 -9.219,0 -17.562,1.375 -25.022,4.118 -7.466,2.741 -13.943,6.692 -19.427,11.853 -5.488,5.154 -9.712,11.247 -12.677,18.273 -2.963,7.023 -4.444,14.817 -4.444,23.378 0,10.751 2.358,20.135 7.079,28.15 4.719,8.012 11.137,14.705 19.261,20.084 8.119,5.377 17.615,9.385 28.481,12.019 10.865,2.633 22.554,3.952 35.066,3.952 H 0.328 c 0,11.193 -3.621,20.084 -10.866,26.668 -7.242,6.587 -17.67,9.877 -31.277,9.877 -6.587,0 -13.392,-1.207 -20.415,-3.621 -7.027,-2.419 -14.05,-6.807 -21.071,-13.17 l -27.987,28.315 c 10.093,9.659 21.781,17.122 35.066,22.389 13.278,5.271 26.941,7.903 40.991,7.903 13.169,0 24.896,-2.089 35.177,-6.256 10.281,-4.173 18.585,-9.547 24.908,-16.133 8.281,-8.345 14.111,-17.671 17.492,-27.987 3.373,-10.32 5.065,-23.49 5.065,-39.509 z"
             style="fill:#6d6e70;fill-opacity:1;fill-rule:nonzero;stroke:none"
             id="path98" /></g><g
           id="g100"
           transform="translate(1538.6953,521.4805)"><path
             d="m 0,0 c 0,8.777 -1.324,16.792 -3.967,24.036 -2.646,7.242 -6.339,13.443 -11.071,18.604 -4.74,5.152 -10.357,9.104 -16.856,11.851 -6.501,2.741 -13.713,4.116 -21.648,4.116 -5.07,0 -10.91,-1.044 -17.516,-3.128 -6.61,-2.088 -12.12,-4.774 -16.524,-8.067 V -44.12 c 10.351,-9.441 22.029,-14.158 35.034,-14.158 7.49,0 14.482,1.424 20.986,4.281 6.498,2.849 12.058,6.855 16.689,12.017 4.623,5.155 8.26,11.302 10.906,18.437 C -1.324,-16.412 0,-8.561 0,0 m 48.069,0 c 0,-13.391 -2.256,-26.124 -6.764,-38.194 C 36.793,-50.267 30.466,-60.86 22.325,-69.968 14.183,-79.077 4.5,-86.322 -6.72,-91.696 c -11.224,-5.377 -23.548,-8.068 -36.964,-8.068 -8.366,0 -16.175,1.151 -23.433,3.455 -7.263,2.308 -14.087,5.98 -20.465,11.032 v -9.877 h -47.414 v 273.28 h 23.587 c 13.355,0 24.195,-10.801 24.243,-24.157 l 0.241,-68.035 c 5.484,4.388 12.02,7.902 19.592,10.538 7.572,2.632 15.526,3.951 23.871,3.951 11.63,0 22.936,-2.585 33.913,-7.737 C 1.423,87.524 11.193,80.445 19.754,71.447 28.315,62.444 35.174,51.858 40.332,39.674 45.487,27.492 48.069,14.266 48.069,0"
             style="fill:#6d6e70;fill-opacity:1;fill-rule:nonzero;stroke:none"
             id="path102" /></g><path
           d="m 1665.126,426.326 h -48.069 v 190.638 h 48.069 z"
           style="fill:#6d6e70;fill-opacity:1;fill-rule:nonzero;stroke:none"
           id="path104" /><g
           id="g106"
           transform="translate(1750.7344,672.6079)"><path
             d="M 0,0 H 15.475 V -55.644 H 63.547 V -98.446 H 15.475 v -86.594 c 0,-4.831 0.602,-8.782 1.809,-11.854 1.204,-3.077 2.8,-5.488 4.775,-7.244 1.977,-1.759 4.223,-2.963 6.752,-3.621 2.52,-0.658 5.209,-0.99 8.065,-0.99 3.729,0 8.23,0.662 13.5,1.978 5.268,1.316 9.763,3.509 13.498,6.584 v -41.816 c -4.83,-3.075 -10.429,-5.374 -16.791,-6.914 -6.371,-1.533 -12.733,-2.305 -19.096,-2.305 -11.196,0 -20.636,1.375 -28.318,4.117 -7.684,2.741 -13.828,6.965 -18.438,12.677 -4.609,5.705 -7.959,12.949 -10.042,21.728 -2.088,8.78 -3.127,19.099 -3.127,30.95 v 83.304 h -25.023 v 21.401 z"
             style="fill:#6d6e70;fill-opacity:1;fill-rule:nonzero;stroke:none"
             id="path108" /></g><g
           id="g110"
           transform="translate(1615.5752,675.1621)"><path
             d="M 0,0 C 0,-13.775 11.168,-24.943 24.943,-24.943 H 49.388 L 0,24.444 Z"
             style="fill:#00a89c;fill-opacity:1;fill-rule:nonzero;stroke:none"
             id="path112" /></g><g
           id="g114"
           transform="translate(1640.0195,699.6064)"><path
             d="m 0,0 h -24.444 l 49.387,-49.388 v 24.444 C 24.943,-11.167 13.776,0 0,0"
             style="fill:#00549e;fill-opacity:1;fill-rule:nonzero;stroke:none"
             id="path116" /></g></g></g></g></svg>
