<svg width="335" height="323" xmlns="http://www.w3.org/2000/svg" xmlns:xlink="http://www.w3.org/1999/xlink" xml:space="preserve" overflow="hidden"><defs><clipPath id="clip0"><rect x="157" y="219" width="335" height="323"/></clipPath></defs><g clip-path="url(#clip0)" transform="translate(-157 -219)"><path d="M80.7037 429.196C80.7037 401.96 87.9072 376.419 100.505 354.347L100.505 354.347C126.524 308.7 175.657 277.937 231.963 277.937L231.963 277.937 383.236 277.937 383.236 293.297C381.023 315.382 374.081 336.065 363.436 354.332L363.436 354.332C350.91 375.854 333.25 394.007 312.119 407.124L312.119 407.124 285.376 407.124C276.698 386.167 256.045 371.429 231.963 371.429L231.963 371.429C203.557 371.429 179.923 391.938 175.078 418.956L175.078 418.956C174.485 422.283 174.182 425.696 174.182 429.196L174.182 429.196C174.182 433.187 174.586 437.093 175.353 440.867L175.353 440.867C144.069 453.422 117.904 476.101 100.953 504.839L100.953 504.839C90.0758 523.237 82.9749 544.137 80.7037 566.454L80.7037 566.454Z" fill="#00A295" transform="matrix(1.00256 0 0 -1 89.9912 806.538)"/><path d="M80.7037 580.469 80.7037 566.454C82.9749 544.137 90.0758 523.237 100.953 504.839L100.953 504.839C117.904 476.101 144.069 453.422 175.353 440.867L175.353 440.867C180.762 467.191 204.048 486.977 231.963 486.977L231.963 486.977C256.059 486.977 276.698 472.239 285.376 451.266L285.376 451.266 381.616 451.266C378.811 470.547 372.36 488.655 362.973 504.854L362.973 504.854C336.823 550.052 287.936 580.469 231.963 580.469L231.963 580.469Z" fill="#00A295" transform="matrix(1.00256 0 0 -1 89.9912 806.538)"/><path d="M312.119 407.124C333.25 394.007 350.91 375.854 363.436 354.332L363.436 354.332C374.081 336.065 381.023 315.382 383.236 293.297L383.236 293.297 383.236 407.124Z" fill="#00A295" transform="matrix(1.00256 0 0 -1 89.9912 806.538)"/><path d="M0 0C-7.39796-8.40799-16.3052-14.7921-26.7249-19.1623-37.1491-23.5309-48.0733-25.7187-59.5015-25.7187-70.0903-25.7187-80.0888-23.7844-89.493-19.9181-98.9003-16.0533-107.067-10.716-113.993-3.90765-120.919 2.89915-126.386 11.007-130.393 20.4212-134.399 29.8331-136.4 40.0015-136.4 50.9296-136.4 61.6846-134.399 71.7306-130.393 81.059-126.386 90.3874-120.962 98.4953-114.115 105.389-107.272 112.28-99.1484 117.699-89.745 121.651-80.3423 125.599-70.2596 127.576-59.5015 127.576-48.408 127.576-37.862 125.56-27.8589 121.525-17.8605 117.491-9.16303 111.354-1.76507 103.119L-26.221 78.1599C-29.9204 83.0324-34.4146 87.0656-39.709 90.2611-45.0042 93.452-51.4335 95.0517-58.9976 95.0517-64.544 95.0517-69.8001 93.8739-74.7561 91.5215-79.7159 89.1653-84.0837 86.015-87.8658 82.0667-91.6486 78.1147-94.6343 73.4505-96.8167 68.0741-99.0029 62.6924-100.094 56.9814-100.094 50.9296-100.094 44.8778-99.0029 39.1615-96.8167 33.7851-94.6343 28.4026-91.6915 23.7384-87.9921 19.7909-84.2974 15.8412-79.9242 12.6878-74.8817 10.3362-69.8384 7.98147-64.544 6.80603-58.9976 6.80603-51.7727 6.80603-45.2171 8.52821-39.3307 11.9764-33.4497 15.4185-28.7419 19.8308-25.2117 25.2117Z" fill="#00A295" transform="matrix(1.00256 0 0 -1 695.719 458.141)"/><path d="M0 0 0 26.9768-16.6406 26.9768C-21.6831 26.9768-26.4346 26.6383-30.886 25.9691-35.3411 25.2937-39.2067 24.1596-42.4841 22.5637-45.7623 20.9641-48.3697 18.9096-50.3002 16.3879-52.2337 13.8655-53.1993 10.84-53.1993 7.31066-53.1993 2.26893-51.226-1.85236-47.2739-5.04326-43.3272-8.23876-38.241-9.83459-32.0201-9.83459-26.6429-9.83459-21.3048-8.99533-16.0104-7.3122-10.716-5.63519-5.38096-3.19473 0 0M36.3067-36.3067 0-36.3067 0-28.4907C-6.39023-32.8631-13.1549-35.8886-20.2971-37.5679-27.4431-39.2449-34.7944-40.0903-42.3577-40.0903-49.4172-40.0903-55.8075-39.0374-61.5192-36.937-67.2364-34.838-72.1954-31.8125-76.3956-27.8605-80.598-23.9138-83.8333-19.248-86.1015-13.8678-88.3704-8.48993-89.5061-2.52163-89.5061 4.034-89.5061 12.2666-87.7012 19.4525-84.0853 25.59-80.4724 31.7252-75.5555 36.8504-69.3353 40.9694-63.1189 45.0869-55.8465 48.156-47.5266 50.173-39.2067 52.1893-30.2558 53.1993-20.6746 53.1993L0.251933 53.1993C0.251933 61.7704-2.52163 68.5787-8.06876 73.6205-13.6151 78.6645-21.6004 81.1838-32.0201 81.1838-37.0633 81.1838-42.275 80.2596-47.6522 78.411-53.0339 76.5587-58.411 73.1985-63.7889 68.326L-85.2194 90.0084C-77.4898 97.4048-68.5397 103.12-58.3682 107.153-48.2005 111.189-37.7364 113.205-26.9776 113.205-16.8926 113.205-7.91408 111.605-0.0398193 108.414 7.83214 105.219 14.1894 101.103 19.0313 96.0602 25.3741 89.6699 29.8376 82.5285 32.4251 74.629 35.0096 66.7264 36.3067 56.6414 36.3067 44.3747Z" fill="#00A295" transform="matrix(1.00256 0 0 -1 795.817 443.77)"/><path d="M0 0-36.3045 0-36.3045 86.9844C-36.3045 92.1908-37.1085 96.7731-38.7127 100.726-40.3155 104.671-42.4665 107.951-45.1681 110.557-47.8719 113.161-50.9518 115.095-54.4107 116.356-57.8689 117.618-61.458 118.248-65.1688 118.248-70.7389 118.248-76.2279 117.278-81.6287 115.349-87.0288 113.414-91.9212 110.346-96.3098 106.144L-96.3098 0-132.617 0-132.617 145.731-96.3098 145.731-96.0579 134.889C-93.8755 137.072-91.1846 139.087-87.9899 140.94-84.799 142.787-81.4779 144.343-78.0312 145.605-74.5891 146.865-71.0598 147.83-67.4416 148.504-63.8303 149.173-60.3438 149.511-56.9791 149.511-49.5849 149.511-42.4833 148.334-35.6765 145.982-28.8659 143.625-22.8141 140.014-17.522 135.14-12.2253 130.263-7.98529 123.96-4.79056 116.23-1.59966 108.498 0 99.3383 0 88.7487Z" fill="#00A295" transform="matrix(1.00256 0 0 -1 993.224 480.077)"/><path d="M0 0 0 26.9768-16.6406 26.9768C-21.6839 26.9768-26.4346 26.6383-30.886 25.9691-35.3419 25.2937-39.2067 24.1596-42.4833 22.5637-45.7623 20.9641-48.3697 18.9096-50.3002 16.3879-52.2337 13.8655-53.1993 10.84-53.1993 7.31066-53.1993 2.26893-51.226-1.85236-47.2739-5.04326-43.328-8.23876-38.241-9.83459-32.0201-9.83459-26.6422-9.83459-21.3048-8.99533-16.0104-7.3122-10.7152-5.63519-5.38173-3.19473 0 0M36.3052-36.3067 0-36.3067 0-28.4907C-6.39023-32.8631-13.1541-35.8886-20.2971-37.5679-27.4424-39.2449-34.7936-40.0903-42.3585-40.0903-49.418-40.0903-55.8067-39.0374-61.5192-36.937-67.2364-34.838-72.1962-31.8125-76.3956-27.8605-80.598-23.9138-83.8326-19.248-86.103-13.8678-88.372-8.48993-89.5061-2.52163-89.5061 4.034-89.5061 12.2666-87.7004 19.4525-84.0853 25.59-80.4717 31.7252-75.5571 36.8504-69.3361 40.9694-63.1189 45.0869-55.8473 48.156-47.5266 50.173-39.2067 52.1893-30.2558 53.1993-20.6746 53.1993L0.251168 53.1993C0.251168 61.7704-2.52163 68.5787-8.06953 73.6205-13.6151 78.6645-21.6004 81.1838-32.0201 81.1838-37.0641 81.1838-42.275 80.2596-47.6529 78.411-53.0339 76.5587-58.4118 73.1985-63.7882 68.326L-85.2194 90.0084C-77.4906 97.4048-68.5404 103.12-58.3674 107.153-48.1997 111.189-37.7372 113.205-26.9783 113.205-16.8941 113.205-7.91408 111.605-0.0413508 108.414 7.83138 105.219 14.1902 101.103 19.0321 96.0602 25.3733 89.6699 29.8376 82.5285 32.4267 74.629 35.0096 66.7264 36.3052 56.6414 36.3052 44.3747Z" fill="#00A295" transform="matrix(1.00256 0 0 -1 1103.18 443.77)"/><path d="M0 0C0 6.72103-1.01386 12.8586-3.03775 18.4057-5.06394 23.9513-7.89187 28.6997-11.5154 32.6518-15.1451 36.597-19.4464 39.6232-24.423 41.7268-29.4012 43.8257-34.9238 44.8786-41.0001 44.8786-44.8824 44.8786-49.3545 44.0792-54.413 42.4833-59.4747 40.8844-63.694 38.8276-67.0664 36.306L-67.0664-33.7851C-59.14-41.0146-50.1975-44.6267-40.2389-44.6267-34.5034-44.6267-29.1492-43.5362-24.1688-41.3485-19.1929-39.1668-14.9353-36.0992-11.3891-32.1464-7.84899-28.1989-5.06394-23.4918-3.03775-18.0282-1.01386-12.5676 0-6.55563 0 0M36.8091 0C36.8091-10.2542 35.0815-20.0046 31.6295-29.2473 28.1744-38.4922 23.3295-46.6039 17.0955-53.5784 10.8607-60.5536 3.4459-66.1015-5.14587-70.2167-13.7407-74.3341-23.1779-76.3948-33.4512-76.3948-39.8576-76.3948-45.8373-75.5134-51.3952-73.7491-56.9569-71.9817-62.1824-69.1699-67.0664-65.3013L-67.0664-72.8647-103.374-72.8647-103.374 136.401-85.312 136.401C-75.0854 136.401-66.7846 128.13-66.7478 117.903L-66.5633 65.8044C-62.3639 69.1645-57.3589 71.8554-51.5606 73.8739-45.7623 75.8894-39.6715 76.8994-33.2812 76.8994-24.3755 76.8994-15.7179 74.9199-7.3122 70.9748 1.08967 67.0219 8.5711 61.6012 15.1267 54.7109 21.6824 47.8168 26.9347 39.7105 30.8844 30.3806 34.8319 21.0521 36.8091 10.9243 36.8091 0" fill="#00A295" transform="matrix(1.00256 0 0 -1 1271.28 407.211)"/><path d="M1275.08 326.461 1238.27 326.461 1238.27 472.443 1275.08 472.443Z" fill="#00A295" transform="matrix(1.00256 0 0 -1 89.9912 806.538)"/><path d="M0 0 11.8501 0 11.8501-42.6097 48.6614-42.6097 48.6614-75.3855 11.8501-75.3855 11.8501-141.695C11.8501-145.395 12.311-148.42 13.2353-150.773 14.1573-153.129 15.3794-154.975 16.8918-156.32 18.4057-157.667 20.1256-158.589 22.0622-159.093 23.9919-159.596 26.051-159.851 28.238-159.851 31.0935-159.851 34.5401-159.344 38.5757-158.336 42.6097-157.328 46.0517-155.649 48.9118-153.294L48.9118-185.315C45.2132-187.67 40.9258-189.43 36.054-190.609 31.1754-191.783 26.3037-192.375 21.4312-192.375 12.8578-192.375 5.62907-191.322-0.253465-189.222-6.13753-187.123-10.8423-183.888-14.3725-179.514-17.9018-175.146-20.4671-169.599-22.0622-162.876-23.6611-156.153-24.4567-148.251-24.4567-139.176L-24.4567-75.3855-43.6182-75.3855-43.6182-58.9976Z" fill="#00A295" transform="matrix(1.00256 0 0 -1 1434.05 291.485)"/><path d="M0 0C0-10.5483 8.55195-19.1002 19.1002-19.1002L37.8191-19.1002 0 18.7181Z" fill="#00A295" transform="matrix(1.00256 0 0 -1 1330.3 289.529)"/><path d="M0 0-18.7181 0 19.1002-37.8191 19.1002-19.101C19.1002-8.55119 10.549 0 0 0" fill="#00A295" transform="matrix(1.00256 0 0 -1 1349.06 270.811)"/></g></svg>